<?xml version="1.0" encoding="UTF-8"?>
<svg id="Layer_2" data-name="Layer 2" xmlns="http://www.w3.org/2000/svg" viewBox="0 0 3139.17 2473.19">
  <defs>
    <style>
      .cls-1 {
        fill: #cf2d1f;
      }

      .cls-2 {
        fill: #f09135;
      }

      .cls-3 {
        fill: none;
        font-family: Impact, Impact;
        font-size: 761.3px;
        stroke: #fffaeb;
        stroke-miterlimit: 10;
        stroke-width: 7px;
      }

      .cls-4 {
        fill: #377d32;
      }

      .cls-5 {
        fill: #1e4bf6;
      }

      .cls-6 {
        fill: #6a1480;
      }

      .cls-7 {
        letter-spacing: -.04em;
      }

      .cls-8 {
        fill: #faed4f;
      }
    </style>
  </defs>
  <g id="Layer_1-2" data-name="Layer 1">
    <g>
      <path class="cls-1" d="M38.34,627.94c53.04-51.76,108.07-100.32,164.85-145.67,53.81-42.99,96.21-66.14,125.6-71.52,29.4-5.4,54.17,9.08,74.03,43.61,19.86,34.45,31.87,103.47,35.69,204.76,2.58,68.5-2.17,118.84-14.27,150.35-12.09,31.61-37.19,61.02-74.94,88.63,43.12-.44,73.37,16.2,90.15,48.46,16.79,32.19,26.72,87.4,29.64,164.2,1.38,36.43,2.77,72.86,4.15,109.3,3.03,79.71-.38,139.39-10.28,178.1-9.9,38.78-27.03,65.15-51.38,79.29-24.34,14.24-75.07,21.42-152.04,22.44-73.78,1.06-147.51,2.2-221.19,3.44v-875.38ZM208.03,656.17c1.92,75.48,3.85,150.96,5.77,226.45,7.63-4,13.59-6.97,17.86-8.94,17.62-8.09,28.74-19.68,33.19-35.2,4.46-15.46,5.73-54.76,3.82-117.71-1.01-33.21-3.69-55.37-8.02-66.32-4.33-10.94-9.68-16.15-16.05-15.7-6.37.46-18.62,6.17-36.57,17.43ZM217.84,1041.13c2.42,94.98,4.84,189.96,7.26,284.95,26.44-4.85,43.19-13.09,50.16-25.01,6.98-11.86,9.8-39.32,8.5-82.18-1-32.99-2-65.98-3-98.97-1.38-45.46-5.43-72.04-12.1-79.54-6.68-7.51-23.69-7.39-50.82.74Z"/>
      <path class="cls-2" d="M695.4,185.23c16.26,436.33,32.52,872.65,48.77,1308.98-63.93.58-127.83,1.23-191.71,1.94-15.72-405.58-31.44-811.16-47.16-1216.74,62.11-34.61,125.56-66,190.09-94.18Z"/>
      <path class="cls-8" d="M1208.43,474.61c-62.31,7.82-124.34,17.6-185.95,29.33-.96-35-1.92-70.01-2.88-105.01-1.34-49.01-4.57-79.7-9.7-92.01-5.13-12.31-13.25-17.14-24.34-14.45-12.04,2.93-20.86,14.21-26.49,33.63-5.63,19.44-7.88,47.25-6.79,83.54,1.4,46.65,5.89,81,13.48,103.21,7.27,22.31,26.77,46.95,58.49,75.33,91.03,82.15,148.49,159.42,172.64,221.15,24.19,61.98,37.46,165.09,40.07,308.23,1.9,104.07-2.94,180.98-14.39,230.43-11.46,49.48-34.52,91.02-69.06,124.25-34.56,33.26-75.1,49.48-121.85,49.46-51.31-.01-95.66-18.58-133.19-54.15-37.53-35.61-62.93-80.08-76.13-134.2-13.2-54.18-21.61-130.92-25.19-231.08-1.04-29.17-2.08-58.35-3.13-87.52,59.82-8.95,119.97-16.86,180.36-23.75,1.69,56.76,3.39,113.52,5.08,170.27,1.57,52.43,5.1,85.98,10.6,100.7,5.5,14.73,14.67,21.8,27.53,21.18,12.86-.62,22.16-10.66,27.93-30.25,5.76-19.58,8.14-48.42,7.12-86.44-2.24-83.63-9.73-137.82-22.51-162.24-13.09-24.32-44.78-64.24-95.19-116.16-50.43-52.35-83.96-88.21-100.58-111.32-16.63-23.05-30.9-56.23-42.83-99.54-11.94-43.3-19.18-100.05-21.73-170.92-3.67-102.15.97-179.29,14.02-232.12,13.05-52.73,35.61-98.95,67.98-137.84,32.36-38.82,72.4-66.36,120.26-80.3,52.32-15.24,97.78-10.81,135.77,12.54,38,23.38,63.59,59,76.65,105.15,13.07,46.18,20.66,127.42,22.87,243.27.37,19.21.73,38.41,1.1,57.62Z"/>
      <path class="cls-8" d="M1699.5,2.9c-.57,99.23-1.15,198.46-1.73,297.7-40.48-1.68-81.01-2.46-121.52-2.32.19,397.37.38,794.75.57,1192.12-64.02,0-128.05.08-192.07.22-4.32-394.63-8.65-789.26-12.98-1183.89-40.23,3.2-80.38,7.3-120.43,12.3-1.65-97.73-3.31-195.47-4.96-293.2C1396.36,2.84,1548.26-4.81,1699.5,2.9Z"/>
      <path class="cls-4" d="M1746.83,5.82c48.94,3.54,97.78,8.68,146.44,15.44,97.32,13.68,162.3,35.51,195.92,56.68,33.63,21.37,60.24,62.88,79.87,123.16,19.63,60.37,27.57,150.11,24.08,269.79-3.19,109.3-12.69,181.33-28.45,216.72-15.78,35.36-45.26,53.75-88.7,55.91,38.72,23.32,64.25,51.3,76.8,83.33,12.54,32.07,20.04,60.8,22.57,86.4,2.53,25.61,2.13,95.07-1.17,208.43-3.6,123.51-7.19,247.01-10.79,370.52-59.42-.37-118.85-.68-178.29-.94,3.4-160.56,6.79-321.12,10.19-481.68,1.65-77.57-.54-125.9-6.57-145-6.03-19.07-22.67-29.93-49.97-32.13-4.01,219.52-8.02,439.05-12.03,658.57-64.01-.23-128.03-.4-192.05-.51,4.05-494.9,8.1-989.8,12.15-1484.7ZM1948.85,280.34c-1.98,108.26-3.96,216.52-5.93,324.77,22.5,2.37,38.37-1.62,47.63-12.18,9.26-10.57,14.57-47.72,15.93-111.58.56-26.56,1.12-53.12,1.69-79.68.97-45.94-2.79-76.79-11.31-92.54-8.53-15.72-24.52-25.48-48-28.79Z"/>
      <path class="cls-5" d="M2694.61,1005.49c-4.54,119.09-9.49,203.08-14.84,252.33-5.36,49.23-17.95,93.55-37.87,134.23-19.92,40.64-45.98,72.39-78.13,95.04-32.16,22.63-69.06,34.6-110.65,34.61-39.48.01-74.49-11.41-105.1-35.22-30.61-23.78-54.71-59.94-72.32-108.61-17.61-48.64-27.39-101.92-29.25-159.08-1.86-57.13-.54-157.02,3.98-299.43,2.5-78.89,5.01-157.78,7.51-236.66,4.41-138.98,9.32-236.98,14.77-293.76,5.43-56.77,18.43-106.41,38.96-147.78,20.51-41.37,47.35-68.68,80.24-81.2,32.87-12.53,70.42-9.08,112.22,10.26,39.66,18.35,74.41,47.38,104.49,85.16,30.07,37.83,53.42,83.24,70.36,135.12,16.93,51.95,26.18,102.77,27.84,153.36,1.65,50.64.16,136.78-4.49,258.79-2.58,67.61-5.16,135.22-7.74,202.82ZM2520.64,541.15c2.28-59.7,1.84-98.6-1.32-116.78-3.17-18.16-10.66-29.66-22.55-34.28-10.06-3.91-18.04,0-23.9,11.74-5.87,11.73-10.06,51.39-12.57,118.84-7.59,203.93-15.18,407.86-22.76,611.79-2.83,76.08-2.83,123.19,0,141.24,2.83,18.07,10.64,27.52,23.4,28.47,13.06.97,21.8-8.47,26.21-28.26,4.41-19.81,8.06-67.43,10.95-142.99,7.51-196.59,15.02-393.17,22.53-589.76Z"/>
      <path class="cls-6" d="M3132.65,627.94v175.19c-32.82-24.77-66.21-48.63-100.13-71.58-4.46,256.65-8.92,513.3-13.38,769.94-63.74-.99-127.52-1.91-191.33-2.77,9.7-291.78,19.41-583.57,29.11-875.35-35.42-19.8-71.29-38.69-107.58-56.68,2.9-77.61,5.8-155.22,8.7-232.82,132.68,82.67,258.41,180.69,374.6,294.07Z"/>
    </g>
    <text class="cls-3" transform="translate(3.5 2218.03)"><tspan x="0" y="0">BAS</tspan><tspan class="cls-7" x="1200.68" y="0">T</tspan><tspan x="1521.11" y="0">ARDS</tspan></text>
  </g>
</svg>