<svg width="160" height="160" viewBox="0 0 160 160" xmlns="http://www.w3.org/2000/svg">
  <!-- Fond -->
  <circle cx="80" cy="80" r="78" fill="#FFE9F3" stroke="#FF6FAF" stroke-width="4" />

  <!-- Tête -->
  <circle cx="80" cy="78" r="38" fill="#FFFFFF" stroke="#FF6FAF" stroke-width="3" />

  <!-- Oreille gauche -->
  <path d="M48 62 C40 44 50 34 62 40 C68 44 70 52 66 60 Z"
        fill="#FFD7EB" stroke="#FF6FAF" stroke-width="3" />

  <!-- Oreille droite -->
  <path d="M112 62 C120 44 110 34 98 40 C92 44 90 52 94 60 Z"
        fill="#FFD7EB" stroke="#FF6FAF" stroke-width="3" />

  <!-- Tâche sur l’œil -->
  <circle cx="67" cy="78" r="10" fill="#FFE0F0" stroke="none" />

  <!-- Yeux -->
  <circle cx="67" cy="78" r="4" fill="#000000" />
  <circle cx="93" cy="78" r="4" fill="#000000" />

  <!-- Truffe -->
  <ellipse cx="80" cy="92" rx="7" ry="5" fill="#FF6FAF" />

  <!-- Museau -->
  <path d="M80 97 L76 103 M80 97 L84 103"
        stroke="#FF6FAF" stroke-width="2" stroke-linecap="round" />

  <!-- Collier -->
  <rect x="55" y="110" width="50" height="10" rx="5" fill="#FF6FAF" />
  <circle cx="80" cy="123" r="4" fill="#FFD700" stroke="#CC9A00" stroke-width="1.5" />
</svg>
