<svg width="160" height="160" viewBox="0 0 160 160" xmlns="http://www.w3.org/2000/svg">
  <!-- Fond -->
  <circle cx="80" cy="80" r="78" fill="#E9E4FF" stroke="#6D5BFF" stroke-width="4" />

  <!-- Tête -->
  <circle cx="80" cy="78" r="38" fill="#FFFFFF" stroke="#6D5BFF" stroke-width="3" />

  <!-- Oreille gauche -->
  <path d="M50 64 C44 46 52 36 64 40 C70 42 73 50 70 58 Z"
        fill="#D8D0FF" stroke="#6D5BFF" stroke-width="3" />

  <!-- Oreille droite -->
  <path d="M110 64 C116 46 108 36 96 40 C90 42 87 50 90 58 Z"
        fill="#D8D0FF" stroke="#6D5BFF" stroke-width="3" />

  <!-- Tâche sur l’œil -->
  <circle cx="92" cy="78" r="10" fill="#E1DBFF" stroke="none" />

  <!-- Yeux -->
  <circle cx="68" cy="78" r="4" fill="#000000" />
  <circle cx="92" cy="78" r="4" fill="#000000" />

  <!-- Truffe -->
  <ellipse cx="80" cy="92" rx="7" ry="5" fill="#6D5BFF" />

  <!-- Museau -->
  <path d="M80 97 L76 103 M80 97 L84 103"
        stroke="#6D5BFF" stroke-width="2" stroke-linecap="round" />

  <!-- Collier -->
  <rect x="55" y="110" width="50" height="10" rx="5" fill="#6D5BFF" />
  <circle cx="80" cy="123" r="4" fill="#FFD966" stroke="#CCAA00" stroke-width="1.5" />
</svg>
